<?xml version="1.0" encoding="utf-8"?>
<!-- Generator: Adobe Illustrator 21.1.0, SVG Export Plug-In . SVG Version: 6.00 Build 0)  -->
<svg version="1.1" id="Слой_1" xmlns="http://www.w3.org/2000/svg" xmlns:xlink="http://www.w3.org/1999/xlink" x="0px" y="0px"
	 viewBox="0 0 77 28" enable-background="new 0 0 77 28" xml:space="preserve">
<path fill-rule="evenodd" clip-rule="evenodd" fill="#FFFFFF" d="M71,28h-4.7l5.5-25h-3.4L64.9,20L61.4,3H58l5.4,25h-5.9L51.7,3
	h-3.1l-5.8,25H37l6-28h34L71,28z M30,28L30,28L25,3h4l2.3,18.5l3.1-18.4L38,3l-5.4,25H30z M14,3h9v3h-6v7h5v3h-5v9h6v3h-9V3z
	 M3.8,28H0V3l4.3,0.1c2.6,0,4.5,0.9,5.8,2.5c1.3,1.7,1.9,4.9,1.9,9.7c0,5.6-0.7,9.1-2.1,10.5C8.6,27.3,6.5,28,3.8,28z M8.7,16.1
	c0-0.3,0-0.6,0-0.8c0-2.9-0.3-5.2-1-6.9C7.1,6.8,5.8,6,3.9,6C4,6,3.2,6,3,6l0,19c0,0,1.2,0,1,0c2.5,0,3.3-0.7,3.8-2.4
	c0.5-1.7,0.8-3.6,0.9-5.7C8.7,16.7,8.7,16.4,8.7,16.1z M52.4,20.3h-4.5l2.3-10.8L52.4,20.3z M53,23.1l1.2,4.9h-8l1.1-4.9H53z"/>
</svg>
